# xmcd
#
# Track frame offsets:
#	150
#	18425
#	34451
#	52456
#	70586
#	88314
#	106957
#	125515
#	142346
#	160690
#	180510
#	201275
#	218019
#	231702
#	249889
#	269952
#	286263
#	302816
#	322259
#	343125
#
# Disc length: 4797 seconds
#
# Revision: 4
# Processed by: cddbd v1.5.1PL2 Copyright (c) Steve Scherf et al.
# Submitted via: Rip'N'TagIt 1.3.0.1 
#
DISCID=4812bb14
DTITLE=Various Artist - Kiss Presents- R&B Classics Disc 2
DYEAR=2004
DGENRE=blues
TTITLE0=California Love
TTITLE1=No Scrubs
TTITLE2=Nuthin' but a "G" Thang
TTITLE3=He wasn't man enough
TTITLE4=She's got that vibe
TTITLE5=Can I get a...
TTITLE6=Hey Lover
TTITLE7=If you love me
TTITLE8=How deep is your love
TTITLE9=Don't leave me
TTITLE10=Every Little Step
TTITLE11=Straight Up
TTITLE12=I'll be
TTITLE13=Shoop
TTITLE14=One for the money
TTITLE15=Joints and Jams
TTITLE16=Ghetto Romance
TTITLE17=Every little thing I do
TTITLE18=Where you are (Silk's old school mix)
TTITLE19=All my life
EXTD=
EXTT0=
EXTT1=
EXTT2=
EXTT3=
EXTT4=
EXTT5=
EXTT6=
EXTT7=
EXTT8=
EXTT9=
EXTT10=
EXTT11=
EXTT12=
EXTT13=
EXTT14=
EXTT15=
EXTT16=
EXTT17=
EXTT18=
EXTT19=
PLAYORDER=
